<?xml version="1.0"?><svg xmlns="http://www.w3.org/2000/svg" version="1.2" baseProfile="tiny" width="1080" height="1080" viewBox="-43.796 22.7461 0.6940999999999988 0.3362000000000016" stroke-linecap="round" stroke-linejoin="round"><g id="MU3303500MU"  stroke-width="6" stroke="gray" fill="#F6F6F6" transform="scale(0.0001,-0.0001)"><path id="3303500" d="M-434014,-225334l-35,-12l-14,2l-36,26l-31,-31l-20,3l-17,-10l-10,-13l-18,-12l-37,17l-6,26l-37,-3l-36,9l-21,11l-7,14l-13,9l-43,-3l-8,-6l-20,9l-18,15l-17,23l-38,-25l-11,-1l-67,-34l-14,-27l-37,-35l-8,-1l-38,16l-8,7l-44,-27l-19,-22l-61,-22l-13,-15l-13,-1l-16,-11l-1,-13l-18,-14l-15,2l-19,-13l-12,11l-11,-10l2,-23l-47,-14l-17,-12l8,-23l-6,-8l3,-18l-33,-23l5,-19l-55,-19l-12,-8l-2,-16l-11,-10l0,-12l-14,-18h-14l-42,21l-35,-10l-28,36l-21,-16l-23,-4l-5,8l-32,24l-23,-2l-13,4l-14,-27l-16,-14l-18,12l-10,12l-21,13l-14,-31l-28,-22l-54,-20l-20,36l-21,5l-10,19l-38,3l-9,-15l6,-29l15,-13l-8,-10l7,-18l-7,-23l-9,-14l-29,-10l-7,12l5,14l-7,9l-27,-2l-17,-9l-18,8l-17,-13l-49,10l-20,-16h-15l-1,-15l-24,-3l-25,-23l20,-36l-9,-16l-21,-11l-24,-35l-37,-25l-26,-6l-18,-16l-51,-19l0,-29l-12,-25l-21,-3l-28,-20l-35,-5l-51,-37l-12,-25l-18,-8l-18,-19l-4,-15l-20,-17l-28,-30l-19,-29l61,-165l39,49l15,9l67,20l21,19l51,42l30,27l72,57l47,2l99,37l13,16l82,50l0,-93l1,-18l10,-32l-33,-13l-11,-10l-3,-38l-8,-12l8,-25l13,-9l35,2l33,-21l37,3l17,-3l14,-11l1,-16l54,-80l-14,-33l8,-9l38,-13l19,-32l9,-1l67,23l46,-9l7,-10l-25,-21l-20,-25l-18,-10l-12,-29l-9,-41l-9,-11l-16,5l-33,-22l-10,7l-22,-17l-12,-23l-16,-5l3,-17l-23,-8l2,-19l9,-7l13,-2l31,4l24,-20h8l30,16l24,-6l52,-61l27,-21l17,-4l41,-3l27,-8l35,-15l51,1l38,3l-3,-26l-53,-11l-19,7l-23,-21l-14,-20l-20,-12l-15,-2l-32,-16l-25,-19l-18,-5l4,-21l-2,-31l-34,-20l-35,-39l25,-12l18,-18l-28,-41l2,-18l17,-14l8,-22l-24,-20l-6,-17l1,-25l-10,-25l99,-26l-22,-67l0,-27l-9,-10l2,-23l-26,-12l-21,-4l-21,-13l-24,2l-21,-13l-37,9l-25,-4l-30,-1l-31,-26l-15,-2l-48,13l-34,20l-8,16l-9,1l-28,-16l-31,-6l-43,10l-37,-3l-17,2l-65,-4l-41,9l-27,18l-14,31l-8,5l-65,11l-35,-8l-26,-14l-10,-22l-4,-63l-5,-37l-17,-25l-69,-66l-15,-6l-14,-17l7,-21l23,-51l5,-24l-110,-8l1,-32l36,-115l-1,-32l9,-24l17,-21l16,-13l0,-10l-22,-23l8,-23l27,-32l10,-28l19,-15l8,-18l-5,-34l-6,-13l-34,-22l-13,1l-20,-12l-15,-33l-13,-11l-21,-9l-30,-20l-9,-12l-44,-31l-23,-11l-27,-22l-51,-28l-37,-17h-18l-86,-20l-30,-15l-26,-69l-10,-39l3,-4l9,1l26,-14l49,1l64,18l78,55l13,8l55,14l11,-3l81,-28l42,-17l67,-22l53,6l224,43l13,-6l20,-20l7,28l38,189l291,98l376,64l317,70l-14,9h-33l-15,8l6,22l15,9l3,30l15,32l8,23l-24,7l-33,23l-20,18l-6,13l-20,5l-5,23l62,7l48,12l49,8h45l35,16l31,6l19,-1l21,6l19,45l12,10l24,2l13,-17l25,8l-1,10l14,6l15,-3l18,11l11,16l24,9h25l32,13l7,19l24,4l29,10l10,11l48,33l11,13l31,19l10,-8l40,-4l32,23l19,1l28,-34l39,-3l31,8l17,-4l-53,31l2,16l18,63l1,15l-15,21l-50,19l-20,16l-42,81l-38,97l-18,44l-19,33l21,13l24,28l23,41l1,11l-16,32l-3,38l-11,12l-14,44l28,-3l42,-11l19,1l18,9l23,21l15,8l44,8l25,-5l0,23l22,31l8,1l50,-11l64,19l19,22l29,-5l29,8l30,-11l12,2l13,13l41,-1l16,-19l28,-8l16,-10l22,1l22,40l4,30l23,22l-1,5l11,37l-9,14l-65,65l-115,37l-23,6l-38,25l-13,13l-26,1l-34,17l-18,19l-28,45l-5,38l3,8l153,175l43,48l-10,24l11,45l-9,26l-25,2l-13,24l-27,27l-23,10l-66,16l-35,25l-29,-19h-16l-29,16l-21,-5l-13,33l-10,19l10,14l-10,19l-24,27l-9,40l8,19l19,10l8,10l38,12l15,20l47,7l52,69l27,18l22,-2l0,13l20,8l8,9l29,11l-2,11l11,19l-4,23l-14,12l1,42l-19,33l-1,23l-14,9l-11,18l-14,3l-9,18l-86,48l-8,11l-31,18l-25,10l6,16l31,14l27,5l23,-2l-1,86Z" /></g><g id="MU3304557MU"  stroke-width="6" stroke="gray" fill="#F6F6F6" transform="scale(0.0001,-0.0001)"><path id="3304557" d="M-435609,-230796l-29,-19l20,-8l9,27M-431945,-230672l-37,-18l-9,-25l14,-11l23,-4l24,-11l18,20l0,15l-10,22l-23,12M-435095,-230656l16,8l-13,16l-31,17l-12,-10l9,-10l-14,-9l5,-14l40,2M-431482,-230596l3,-32l-4,-10l15,-19l45,-2l-6,18l-53,45M-435886,-230422l-31,9l-8,-14l39,5M-433039,-230366l-28,-8l15,-8l21,-3l-8,19M-435780,-230427l-11,20l-15,16l-43,34l-26,4l8,-20l28,-4l25,-14l10,-13l12,-41l14,4l-2,14M-432001,-230376l-5,10l-46,-12h-22l-8,-21l22,-3l29,16l5,7l25,3M-434691,-230341l-16,3l-13,-17l11,-23h26l8,7l-16,30M-432994,-230312l-15,-8l-2,-14l18,-8l-1,30M-436678,-230531l97,7l66,7l147,11l64,3l57,1l129,-1l57,-2l70,-7l123,-21l61,-17l38,-13l48,-28l28,-22l15,-18l15,13l-20,24l18,15l5,18l-5,13l-65,34l-40,33l-15,6l-40,7l-36,12l-23,24l-17,5l-29,-2l-27,6l-29,12l-23,6l-31,18l-8,17l-2,23l-8,9l-24,12l-37,6l-21,10l-55,-19l-37,-5l-60,-1l-58,-11l-30,-9l-51,-4l-30,-9l-46,-9l-33,-11l-26,-3l-28,-13l-31,-9l-12,6l-29,-19l-12,-105M-436045,-230307l-31,11l-20,1l-20,-7l0,-8l31,-3l35,-18l9,14l-4,10M-435992,-230282l-12,5l-19,-12l-17,-2l13,-40l-6,-42l10,-17l17,-7l56,-8l19,3l34,-5l39,-17l39,-31l14,-6l6,15l-9,42l-26,20l-33,7l-26,19l-43,19l-34,27l-22,30M-436027,-230289l24,14l-22,12l-21,-11l19,-15M-432030,-230253l-16,-5l-11,-11l37,-5l12,13l-22,8M-431912,-230253l-21,-5l-17,-11l32,-8l17,7l-11,17M-431473,-229618h-16l-18,-13l-4,-12l19,-16l19,27l0,14M-437854,-229289l15,9l6,23l-10,3l-26,-10l3,-15l12,-10M-431589,-229126l-17,-3l-9,-20l9,-17l27,36l-10,4M-431715,-228942l-32,11l-12,-25l9,-19l37,-12l3,8l27,3l9,20l-41,14M-432092,-228864l-17,-4l22,-27l13,4l-8,24l-10,3M-431742,-228829l-19,-1l-8,-11l32,-1l-5,13M-431730,-228384l-15,16l-11,-8l15,-12l11,4M-432306,-228368l-17,-18h-18l-35,-6l-47,22l-10,-26l10,-2l21,-19l0,-30l-8,-20l16,-17l1,-12l14,-28l14,-15l6,-48l-3,-24l37,-20l8,-33h18l22,-6l54,-35l23,9l43,-9l11,7l5,20l-2,18l-8,23l-16,19l-16,-15l-11,12l16,10l38,14l16,-9l18,8l18,-5l5,16l-12,11l-27,-9l-32,13l-18,-14l-55,-2l-39,26l-39,46l-19,44l11,31l51,26l23,-4l16,-19l-17,-10l-2,-18l8,-13l21,1l2,14l13,16l-18,16l-21,39l-24,3l-16,19l-29,3M-432583,-228245l-16,-6l7,-15l18,9l-9,12M-431622,-228112l-25,-7l-2,-19l30,-13l5,29l-8,10M-431171,-228037l1,11l-22,-2l-4,-10l17,-6l8,7M-432728,-228098l-29,18l-21,6l-112,-5l5,-25h-17l-63,43l-15,-7l-16,6l-13,26l-23,1l-9,27l-29,8l-58,-1l-79,-15l-43,5l-39,-15l-20,-1l-176,-11l-7,5l-48,9l-53,-5l-24,-16l-38,4l-20,-9l-25,-3l-23,-19l-22,-4l-18,-16l-9,-17l-23,3l-34,-13l-20,-21l-30,-8l-27,10l-46,-15l-55,-21l-72,-38l-33,10l-42,-14l-16,-23l-9,-25l-26,-31l-15,-31l-22,-1l-14,-31l-56,-35l-79,-31l-190,-66l-111,86l-2,-1l-130,101l-77,149l-317,-70l-376,-64l-291,-98l-38,-189l-7,-28l-20,20l-13,6l-224,-43l-53,-6l-67,22l-42,17l-81,28l-11,3l-55,-14l-13,-8l-78,-55l-64,-18l-49,-1l-26,14l-9,-1l-19,-13l-16,-2l-10,15l-21,4l-10,9l-33,-17l-10,3l-36,-6l-7,-5l-28,9l-49,-4l-37,-13l-22,-19l-37,-7l-33,16l-21,-1l-21,-17l-9,-23l-22,-14l-34,3l-41,-3l-24,-8l-68,-50l-68,12l-46,-3l-25,-5l-34,-19l-7,-11l16,-69l-9,-9l-38,-11l-105,-53l-18,-3l-14,6l0,13l-26,3l-15,7l-14,-2l-6,-31l-31,-4l-8,14l-16,-3l-9,-17l2,-19l-12,-15h-18l7,-20l-10,-18l-11,20l-13,11l-18,-1l-10,-26l-31,7l-21,-9l-4,-22l11,-20l22,-3l0,-23l10,-16l5,-21l-53,-28l26,-47l13,-5l24,-35l19,11l35,4l34,-27l-4,-9l56,-39l32,-13l41,5l5,-20l12,-10l27,-14l38,-15l56,-28l46,-29l16,-14l31,-9l12,-19l30,-25l77,-48l18,-22l23,-12l29,-7l17,-9l31,-31l12,-19l17,-10l8,-29l-23,-15l7,-7l30,12l24,16l31,-16l44,-43l36,-56l29,-56l19,2l24,13l20,-15l28,-32l13,-25l10,20l-2,16l14,22l12,8l27,8l28,30l33,9l30,2l29,-13l57,-37l19,-16l65,-64l22,-41l11,-26l12,-1l7,-12l23,-7l23,11l14,-11l31,9l31,-30l13,-19l27,4l14,-7l25,7l44,-10l35,-19l14,6l16,-28l23,-21l16,-21l33,-27l68,-40l21,-5l25,1l31,-9l3,-17l16,-31l34,-47l24,-16l25,-11l40,-1l57,-44l20,-28l-1,-9l4,-10l-8,-1l-4,-7l51,-21l17,-18l20,-6l18,-13l33,-3l12,-17l11,-3l-4,-37l12,-13l-23,-27l-17,-7l-7,-18l-24,-21l11,-50l-4,-12l-26,-4l-19,-10l37,-11l20,6l4,-16l18,-3l25,2l12,10l45,4l20,-1l21,-19l31,31l-36,13l5,17l10,11l-7,14l11,20l25,1l-1,14l-15,9l11,22h15l10,15l10,4l22,-6l11,3l25,27l27,3l19,22l-10,25l16,11l22,6l72,9l37,3h89l44,12l12,16l-6,28l8,9l36,19l26,-10l10,13l6,22l29,5l31,18l121,27l31,9l23,1l32,-8l14,-9l10,16l20,18l49,21l84,26l88,23l63,14l110,21l85,18l211,33l108,12l72,4l32,5l82,5l48,1l69,5l107,-1l110,-2l83,-9l101,-17l81,-17l66,-6l59,4l6,-9l28,1l11,14l17,2l23,-2l29,3l-19,39l19,25l39,23l21,6h23l15,12l0,15l10,7l49,13l44,8l37,4h64l32,7l43,-7l21,-12l49,6l11,16l57,27l0,9l20,-1l-11,19l21,26l14,-4l24,9l2,16l47,12l47,5l94,-2l100,-7l30,-5l27,-9l10,-15l23,26l49,28l-39,-4l-11,22l3,35l13,28l24,31l36,29l62,37l41,15l42,22l24,3l6,-12l23,-4l23,8l9,13l-17,17l12,25l-18,18l-16,-3l-18,11l0,16l35,19l8,-5h35l26,13l27,5l11,8l-6,15l-22,15l-19,7l-9,37l15,14l23,2l9,12l-11,19l-18,-3l-37,-23l0,-21l-9,-3l-27,4l-12,-6l-13,-21l7,-16l-20,-2l-27,-22l-2,-8l-20,-16l-65,26l-12,8l-24,4l-4,13l6,28l17,14l23,-11l16,-1l33,23l24,32l1,18l-9,13l-17,5l-2,27l4,29l7,20l22,47l2,23l-5,22l-21,-16l-12,1l-11,14l6,29l15,11l28,-1l52,-27l10,4l-1,28l5,11l-3,76l-13,10l-64,-3l-26,17l-19,21l-14,5l-12,15l-9,31l-23,1l12,31l-8,2l-11,-27l-9,-4l-97,33h-54l-135,-56l-11,1l-53,109l23,28l5,-4l119,128l-16,-7l-17,9l-52,43l-28,-33l-7,-28l-13,2l-18,-7l-5,-22l-18,9l6,17l-6,11l-69,-20l-5,49l-38,14l-21,-7l-16,48l-28,17l-17,76l-20,47l-13,22l-7,2l-7,38l-6,14l-15,15l-72,31h-13l-14,10l-10,24l-74,63l-21,20l-15,23l-47,99l-19,34l7,4M-431722,-227756l-11,-9l-22,-6l-16,-23l7,-9l-17,-25l-19,-8l-17,1l-8,19l-10,-2l-15,-25l-19,-4l-23,16l-11,-47l18,-6l3,-8l-12,-34l8,-22l-18,-7l-28,13l-13,-9l-33,14l-43,-6l-20,-11l-34,5l-29,27l-26,31l-16,7l-23,19l-38,19l-34,6l-44,4l2,-30l-6,-16l-73,-35l-14,7l-24,1l-14,-9l-35,-2l-26,-9l-15,-22l-34,-23l-16,-4l-24,6l-8,-16l-25,-20l-12,-18l-12,-36l-21,-21l-2,-12l-13,-17l3,-20l35,-27l7,-17l25,-20l59,-31l19,-6l6,-23l-14,-9l2,-20l11,2l20,-9l0,-12l20,-13l41,-16l3,-5h28l14,10l27,39l41,41l5,11l26,23l24,14l29,10l21,-2l36,20l22,-6l21,15l25,6l17,-5l-7,-22l23,1l2,-10l30,-9l60,13l47,-6l20,-9l15,-20l25,-67l18,-5l7,-9l-3,-18l6,-6l33,16l11,13l14,5l8,16l14,5l-7,22l9,13l16,-1l17,-13l-5,-34l-16,-6l10,-19h35l16,26l6,25l-2,14l44,23l-13,21l-47,-14l-39,16l-28,45l1,19l15,12l-14,7l-11,15l0,43l-6,6l-4,27l6,12l24,1l14,24l20,13l-4,11l9,15l20,17l55,31l29,11l37,19l18,32l-13,25l6,19l-12,11l-37,6l-12,-2l-23,10l-21,-3l1,-17l-26,-17l0,-22l-19,9l-1,12l-19,18l1,13l18,9l-9,14M-431600,-227700l-9,-2l9,-34l-5,-10l16,-12l29,6h27l12,10l-5,17l-19,-8l-29,7l-26,26M-431177,-227538l-16,-6l-1,-15l-15,-6l8,-20l15,-1l13,15l25,6l-29,27M-431056,-227487l-23,-9l-11,-20l-18,-14l-15,-1l-1,-21l21,-25l5,-16l-16,-12l10,-20l2,-22l-5,-16l-27,-3l-10,-9l32,-20l29,-4l17,20l24,20l17,8l-1,16l-21,7l-19,-7l-19,57l14,27l15,3l37,27l-7,15l-11,-5l-16,10l-3,14M-431271,-227461l-19,-6l10,-17l20,12l-11,11Z" /></g><g id="MU3301702MU"  stroke-width="6" stroke="gray" fill="#F6F6F6" transform="scale(0.0001,-0.0001)"><path id="3301702" d="M-432250,-225636l-307,-87l-51,110l27,63l-26,-4l147,284l57,17l38,21l22,5l31,-17l5,-14l-4,-14l36,-22l19,6l10,18l-8,21l19,26l-21,22l6,21l-15,16l-25,-13l-15,10l-1,20l-19,3l-11,-22l-17,10h-14l-18,41l-28,8l-14,17l-527,335l-10,-2l-12,-32l-29,-47l-26,-20l-11,-16l-32,-22l-4,-9l-38,-28l-10,-22l-31,-6l-48,-46l-14,-24l-40,-46l-7,-18l-16,-16l-40,-16l3,-15l15,-14l3,-13l-7,-15l-22,-13l-26,6l-22,-14l-30,-2h-42l-42,-15l-15,-1l-30,-8l-26,7l-11,-7l-30,-29l-42,-1l-28,-9l-16,2l-16,19l-6,21l-38,20l-43,-28l-10,-34l-26,-25l-18,-12l-32,-7l-12,-11l-34,1l-34,11l-37,-11l-18,-12l1,-86l-23,2l-27,-5l-31,-14l-6,-16l25,-10l31,-18l8,-11l86,-48l9,-18l14,-3l11,-18l14,-9l1,-23l19,-33l-1,-42l14,-12l4,-23l-11,-19l2,-11l-29,-11l-8,-9l-20,-8l0,-13l-22,2l-27,-18l-52,-69l-47,-7l-15,-20l-38,-12l-8,-10l-19,-10l-8,-19l9,-40l24,-27l10,-19l-10,-14l10,-19l13,-33l21,5l29,-16h16l29,19l35,-25l66,-16l23,-10l27,-27l13,-24l25,-2l9,-26l-11,-45l10,-24l-43,-48l-153,-175l-3,-8l5,-38l28,-45l18,-19l34,-17l26,-1l13,-13l38,-25l23,-6l115,-37l65,-65l9,-14l-11,-37l1,-5l51,-43l85,-75l36,-16l17,1l36,19l16,18h21l33,-17h13l43,16l22,-5l19,-32l0,-36l-11,-27l12,-16l34,-6l29,-24l-74,-146l-12,-64l0,-67l-8,-131l-1,-57l-6,-165l7,-140l-4,-43l-13,-120l20,1l39,15l43,-5l79,15l58,1l29,-8l9,-27l23,-1l13,-26l16,-6l15,7l63,-43h17l-5,25l112,5l21,-6l29,-18l4,4l1,56l-8,15l2,12l17,3l5,22l-6,38l-26,41l-19,16l-15,1l1,17l18,16l-14,29l-18,23l12,5l16,21l7,19l13,6l10,25l26,27l8,22l21,7l-7,12l21,3l4,11l23,17l-8,24l14,10l27,-11l18,14l7,18l-5,11l31,6l42,20l15,-1l14,12l-3,9l34,7l18,21l-20,10l3,11l15,7l24,3l19,28l37,8l4,9l25,1l0,11l17,4l24,-12l25,-2l62,22l26,17l35,30l15,29l-5,22l-24,6l0,9h-13l-15,12l-27,6l-15,14l2,57l-5,39l2,23l15,17l21,16l-3,14l33,42l3,24l-20,18l10,12l-18,28l15,7l6,14l0,33l-25,12l0,14l-6,35l0,23l-40,44l-16,10l-5,18l16,13l39,53l15,149l10,12l45,71l16,21l20,11l36,43l34,29l29,5l24,36l13,3l3,12l-6,15l10,16l-1,29l-14,16l-22,9l-10,31l2,24l-265,510l3,1Z" /></g></svg>